<svg id="Layer_1" data-name="Layer 1" xmlns="http://www.w3.org/2000/svg" viewBox="0 0 479.29 495.65"><defs><style>.cls-1,.cls-2,.cls-3{fill:#fff;}.cls-2,.cls-3{stroke:#231f20;stroke-miterlimit:10;}.cls-2{stroke-width:0.25px;}.cls-3{stroke-width:0.5px;}</style></defs><polygon class="cls-1" points="206.77 312.29 206.44 312.56 206.44 311.91 206.77 312.29"/><path class="cls-1" d="M167.65,273.21l-.44.4c-.25.21-.53.43-.78.65Z" transform="translate(-49.65 -49.81)"/><path class="cls-1" d="M167.65,273.21l-.44.4c-.25.21-.53.43-.78.65Z" transform="translate(-49.65 -49.81)"/><path class="cls-1" d="M132.14,384.74l-1.3,1.11v-1.59C131.28,384.43,131.7,384.59,132.14,384.74Z" transform="translate(-49.65 -49.81)"/><path class="cls-1" d="M167.65,273.21l-.44.4c-.25.21-.53.43-.78.65Z" transform="translate(-49.65 -49.81)"/><polygon class="cls-2" points="453.59 17.3 453.3 17.3 453.46 17.16 453.59 17.3"/><path class="cls-1" d="M167.65,273.21l-.44.4c-.25.21-.53.43-.78.65Z" transform="translate(-49.65 -49.81)"/><path class="cls-1" d="M256.09,387.89V527.74a17.73,17.73,0,0,1-17.72,17.72H148.56a17.73,17.73,0,0,1-17.72-17.72V411.35l1.3-1.11c1.8.65,3.6,1.25,5.42,1.82l1.9.58c.71.2,1.42.42,2.15.6.52.16,1,.29,1.58.42.69.2,1.37.36,2.06.53s1.62.38,2.44.56,1.42.33,2.13.46,1.15.23,1.71.34,1.17.22,1.73.31c.71.13,1.4.24,2.1.35l2.62.4,1.47.18c.64.07,1.28.17,1.92.22,2,.22,3.93.38,5.88.49.76.08,1.53.11,2.29.13A124.74,124.74,0,0,0,256.09,387.89Z" transform="translate(-49.65 -49.81)"/><path class="cls-1" d="M132.14,384.74l-1.3,1.11v-1.59C131.28,384.43,131.7,384.59,132.14,384.74Z" transform="translate(-49.65 -49.81)"/><polygon class="cls-1" points="206.77 312.29 206.44 312.56 206.44 311.91 206.77 312.29"/><path class="cls-1" d="M522.51,451.46A22,22,0,0,1,528.94,467l-.08,65.71h0a7.29,7.29,0,0,1-7.29,7.29H443a21.9,21.9,0,0,1-15.51-6.43l-149.9-149.9A7.28,7.28,0,0,1,278,373l45.07-38.65,39.19-33.6a7.29,7.29,0,0,1,9.89.38Z" transform="translate(-49.65 -49.81)"/><path class="cls-1" d="M503.23,74.49v65.14a23.7,23.7,0,0,1-8.27,18L356.48,276.32l-44.31,38-51.05,43.77-4.7,4-.33-.38v.67a124.74,124.74,0,0,1-86.55,29.74c-.76,0-1.53-.07-2.29-.13-1.95-.1-3.92-.27-5.88-.49-.64-.05-1.28-.14-1.92-.22l-1.47-.18c-.88-.12-1.75-.25-2.62-.4l-2.1-.34-1.73-.31c-.56-.11-1.15-.22-1.71-.35s-1.42-.29-2.13-.46-1.64-.36-2.44-.56-1.37-.33-2.06-.53c-.53-.13-1.06-.25-1.58-.42-.73-.18-1.44-.4-2.15-.6l-1.9-.58c-1.82-.57-3.62-1.17-5.42-1.82-.44-.15-.86-.31-1.3-.48A125.27,125.27,0,0,1,93.36,171.91l0,0a124.76,124.76,0,0,1,37.46-22.18V64.27A14.47,14.47,0,0,1,145.3,49.81h96.33a14.46,14.46,0,0,1,14.46,14.46V158.5l-8,6.83-1.4,1.21-44.33,38-38.66,33.16-8.05,6.89-4.34,3.71-19.08,16.37a21.52,21.52,0,0,0,3.89,6.56,22,22,0,0,0,30.25,3.06l0,0c.25-.22.53-.44.78-.65l.44-.4,4.63-4L174.9,267l48.44-41.5,32.75-28.08,11.56-9.93,2.35-2L401.42,72.82a23.69,23.69,0,0,1,15.42-5.71h79A7.38,7.38,0,0,1,503.23,74.49Z" transform="translate(-49.65 -49.81)"/><polyline class="cls-2" points="453.3 17.3 453.46 17.16 453.59 17.05"/><line class="cls-3" x1="453.59" y1="17.3" x2="453.59" y2="17.05"/></svg>