<svg xmlns="http://www.w3.org/2000/svg" viewBox="0 0 554.84 46.11"><defs><style>.cls-1{fill:#fff;}</style></defs><g id="Layer_2" data-name="Layer 2"><g id="Layer_1-2" data-name="Layer 1"><path class="cls-1" d="M16.89,33v9.14A2.94,2.94,0,0,1,14,45h-11A2.94,2.94,0,0,1,0,42.09V4A2.93,2.93,0,0,1,2.94,1.08H14A2.93,2.93,0,0,1,16.89,4v9.14a2.94,2.94,0,0,0,2.94,2.94h3.28a2.93,2.93,0,0,0,2-.8L39.32,1.88a2.93,2.93,0,0,1,2-.8H55.14a2.93,2.93,0,0,1,2,5L42,21a2.93,2.93,0,0,0,0,4.2L57.19,40a2.94,2.94,0,0,1-2,5H41.33a2.93,2.93,0,0,1-2-.8L25.12,30.82a2.93,2.93,0,0,0-2-.8H19.83A2.94,2.94,0,0,0,16.89,33Z"/><path class="cls-1" d="M123.46,21.45v3.21c.07,16.61-13.28,21.41-29.56,21.45S64.25,41.27,64.31,24.66V21.45C64.25,4.81,77.59,0,93.9,0S123.46,4.84,123.46,21.45ZM106.57,22.5c.1-7.16-5.77-8.47-12.67-8.57C87,14,81.11,15.34,81.2,22.5v1.08c-.09,7.19,5.77,8.5,12.7,8.6,6.9-.1,12.77-1.41,12.67-8.6Z"/><path class="cls-1" d="M138.55,1.08h15.28A4,4,0,0,1,157,2.61L169.55,19a3.93,3.93,0,0,0,6.22,0L188.4,2.61a3.93,3.93,0,0,1,3.11-1.53h15.26A3.92,3.92,0,0,1,210.69,5V41.1A3.92,3.92,0,0,1,206.77,45h-9a3.93,3.93,0,0,1-3.93-3.93V33.73a3.93,3.93,0,0,0-7.11-2.3l-8.63,12A4,4,0,0,1,174.87,45h-4.43a3.93,3.93,0,0,1-3.18-1.63l-8.64-12a3.93,3.93,0,0,0-7.11,2.3V41.1A3.92,3.92,0,0,1,147.59,45h-9a3.93,3.93,0,0,1-3.93-3.93V5A3.93,3.93,0,0,1,138.55,1.08Z"/><path class="cls-1" d="M253.35,13.87l9.31-11.56a3.14,3.14,0,0,1,2.44-1.17h11.83a3.14,3.14,0,0,1,2.4,5.15L260.08,29.21a3.15,3.15,0,0,0-.73,2V42a3.13,3.13,0,0,1-3.14,3.13H245.59A3.13,3.13,0,0,1,242.46,42V31.23a3.11,3.11,0,0,0-.74-2L222.48,6.29a3.13,3.13,0,0,1,2.4-5.15h11.85a3.12,3.12,0,0,1,2.44,1.17l9.29,11.56A3.14,3.14,0,0,0,253.35,13.87Z"/><path class="cls-1" d="M337.8,1.08h8.06a4.43,4.43,0,0,1,4.43,4.43V24.69c.06,16.61-13.35,21.38-29.59,21.42S291,41.3,291.11,24.69V5.51a4.43,4.43,0,0,1,4.43-4.43h8A4.43,4.43,0,0,1,308,5.51v18.1c-.07,7.22,5.77,8.47,12.7,8.57,6.89-.1,12.76-1.35,12.67-8.57V5.51A4.43,4.43,0,0,1,337.8,1.08Z"/><path class="cls-1" d="M382.11,41.46V18.71a3.63,3.63,0,0,0-3.63-3.64H365.66A3.63,3.63,0,0,1,362,11.44V4.78a3.64,3.64,0,0,1,3.63-3.64h49.79a3.63,3.63,0,0,1,3.63,3.64v6.66a3.62,3.62,0,0,1-3.63,3.63H402.63A3.64,3.64,0,0,0,399,18.71V41.46a3.62,3.62,0,0,1-3.63,3.63h-9.63A3.63,3.63,0,0,1,382.11,41.46Z"/><path class="cls-1" d="M433.7,1.14h45.08A2.81,2.81,0,0,1,481.59,4V9.58a2.81,2.81,0,0,1-2.81,2.81H450.59a2.81,2.81,0,0,0-2.81,2.82h0A2.81,2.81,0,0,0,450.59,18h28.19a2.81,2.81,0,0,1,2.81,2.81v4.54a2.81,2.81,0,0,1-2.81,2.82H450.59A2.81,2.81,0,0,0,447.78,31h0a2.81,2.81,0,0,0,2.81,2.81h28.19a2.81,2.81,0,0,1,2.81,2.81v5.66a2.81,2.81,0,0,1-2.81,2.81H433.7a2.81,2.81,0,0,1-2.81-2.81V4A2.81,2.81,0,0,1,433.7,1.14Z"/><path class="cls-1" d="M538.46,1.11a16.48,16.48,0,0,1,16.38,16.61,16.09,16.09,0,0,1-2.62,9A16.49,16.49,0,0,1,548,31.17a3.07,3.07,0,0,0-.52,4.34l3.6,4.71a3,3,0,0,1-2.39,4.84H538.34a3,3,0,0,1-2.4-1.19l-6.34-8.35a3,3,0,0,0-2.4-1.18H516.62a3,3,0,0,0-3,3v4.7a3,3,0,0,1-3,3H499.73a3,3,0,0,1-3-3V4.12a3,3,0,0,1,3-3ZM513.61,17v1.47a3,3,0,0,0,3,3h17.59a3.52,3.52,0,0,0,2.61-1.08,3.62,3.62,0,0,0,1.09-2.65,3.71,3.71,0,0,0-3.7-3.76H516.62A3,3,0,0,0,513.61,17Z"/></g></g></svg>